<svg width="29.000000" height="24.000000" viewBox="0 0 29 24" fill="none" xmlns="http://www.w3.org/2000/svg" xmlns:xlink="http://www.w3.org/1999/xlink">
	<desc>
			Created with Pixso.
	</desc>
	<defs/>
	<path id="Vector" d="M13.9722 23.8807L13.9617 23.8767L13.929 23.8607C13.7375 23.7663 13.5476 23.6694 13.3594 23.57C11.0955 22.364 8.97998 20.9472 7.04785 19.3433C3.62573 16.4805 0 12.2324 0 7.00027C0 3.09616 3.66431 9.15527e-05 8.0874 9.15527e-05C9.31689 -0.00531006 10.532 0.237885 11.6421 0.711578C12.7524 1.18527 13.7292 1.87729 14.5 2.73618C15.271 1.87714 16.248 1.185 17.3586 0.711304C18.469 0.237579 19.6843 -0.00549316 20.9143 9.15527e-05C25.3357 9.15527e-05 29 3.09616 29 7.00027C29 12.2337 25.3743 16.4818 21.9521 19.3419C20.02 20.9459 17.9045 22.3627 15.6406 23.5687C15.4524 23.6685 15.2625 23.7658 15.071 23.8607L15.0383 23.8767L15.0278 23.882L15.0234 23.8834C14.8623 23.96 14.6826 24 14.5 24C14.3174 24 14.1377 23.96 13.9766 23.8834L13.9722 23.8807Z" fill="#FFFFFF" fill-opacity="1.000000" fill-rule="nonzero"/>
	<path id="offline_bolt" d="M20.8933 18.9649L24.0833 12.7316L21.8833 12.7316L21.8833 8.69824L18.5833 14.9315L20.8933 14.9315L20.8933 18.9649ZM21.3333 21.1649C20.3188 21.1649 19.3655 20.9724 18.4734 20.5874C17.5811 20.2024 16.8049 19.6799 16.145 19.0199C15.4851 18.3599 14.9624 17.5838 14.5774 16.6916C14.1924 15.7993 14 14.846 14 13.8316C14 12.8171 14.1924 11.8638 14.5774 10.9716C14.9624 10.0793 15.4851 9.30322 16.145 8.64322C16.8049 7.98322 17.5811 7.46072 18.4734 7.07574C19.3655 6.69073 20.3188 6.49823 21.3333 6.49823C22.3477 6.49823 23.301 6.69073 24.1934 7.07574C25.0854 7.46072 25.8616 7.98322 26.5217 8.64322C27.1816 9.30322 27.7041 10.0793 28.0891 10.9716C28.4741 11.8638 28.6667 12.8171 28.6667 13.8316C28.6667 14.846 28.4741 15.7993 28.0891 16.6916C27.7041 17.5838 27.1816 18.3599 26.5217 19.0199C25.8616 19.6799 25.0854 20.2024 24.1934 20.5874C23.301 20.9724 22.3477 21.1649 21.3333 21.1649Z" fill="#894189" fill-opacity="1.000000" fill-rule="nonzero"/>
	<path id="offline_bolt" d="M21.2666 18.4982L24.1667 12.8315L22.1667 12.8315L22.1667 9.16486L19.1667 14.8315L21.2666 14.8315L21.2666 18.4982ZM21.6667 20.4982C20.7444 20.4982 19.8777 20.3232 19.0667 19.9732C18.2556 19.6232 17.55 19.1482 16.95 18.5482C16.3501 17.9482 15.875 17.2426 15.5249 16.4315C15.175 15.6204 15 14.7538 15 13.8315C15 12.9093 15.175 12.0426 15.5249 11.2315C15.875 10.4204 16.3501 9.71484 16.95 9.11487C17.55 8.51486 18.2556 8.03986 19.0667 7.68985C19.8777 7.33984 20.7444 7.16486 21.6667 7.16486C22.5889 7.16486 23.4556 7.33984 24.2666 7.68985C25.0779 8.03986 25.7834 8.51486 26.3833 9.11487C26.9834 9.71484 27.4583 10.4204 27.8083 11.2315C28.1584 12.0426 28.3333 12.9093 28.3333 13.8315C28.3333 14.7538 28.1584 15.6204 27.8083 16.4315C27.4583 17.2426 26.9834 17.9482 26.3833 18.5482C25.7834 19.1482 25.0779 19.6232 24.2666 19.9732C23.4556 20.3232 22.5889 20.4982 21.6667 20.4982Z" fill="#FFFFFF" fill-opacity="1.000000" fill-rule="nonzero"/>
</svg>
